# xmcd
#
# Track frame offsets:
#	150
#	12522
#	24909
#	38642
#	49352
#	59872
#	72277
#	82207
#	96094
#	108989
#	133549
#	143359
#	154926
#	176273
#	198366
#	225166
#	236723
#	257696
#	277406
#	319228
#	344913
#
# Disc length: 4834 seconds
#
# Revision: 1
# Processed by: cddbd v1.5.2PL0 Copyright (c) Steve Scherf et al.
# Submitted via: audiograbber 1.83.01
#
DISCID=3412e015
DTITLE=Willie Dixon - Giant of the Blues [CD1)
DYEAR=2008
DGENRE=Blues
TTITLE0=You sure look got to me
TTITLE1=Signifying Monkey
TTITLE2=Reno Blues
TTITLE3=Violent love
TTITLE4=Cool kind woman
TTITLE5=Wang dang doodle
TTITLE6=So long
TTITLE7=Walking the blues
TTITLE8=Crazy for my baby
TTITLE9=This pain in my heart
TTITLE10=Twenty-nine ways (To my baby's door)
TTITLE11=All the time
TTITLE12=Sittin' and cryin' the blues
TTITLE13=Spoonful
TTITLE14=I just wanna make love to you
TTITLE15=Chicago here I come
TTITLE16=Tore down
TTITLE17=You know it ain't right
TTITLE18=Mean mistreater - Baby what you want me to do
TTITLE19=Roach stew
TTITLE20=Killing floor
EXTD=
EXTT0=
EXTT1=
EXTT2=
EXTT3=
EXTT4=
EXTT5=
EXTT6=
EXTT7=
EXTT8=
EXTT9=
EXTT10=
EXTT11=
EXTT12=
EXTT13=
EXTT14=
EXTT15=
EXTT16=
EXTT17=
EXTT18=
EXTT19=
EXTT20=
PLAYORDER=
